<?xml version="1.0" encoding="utf-8"?>
<!-- Generator: Adobe Illustrator 26.0.0, SVG Export Plug-In . SVG Version: 6.00 Build 0)  -->
<svg version="1.1" id="Layer_1" xmlns="http://www.w3.org/2000/svg" xmlns:xlink="http://www.w3.org/1999/xlink" x="0px" y="0px"
	 viewBox="0 0 100 100" style="enable-background:new 0 0 100 100;" xml:space="preserve">
<style type="text/css">
	.st0{fill:#F0047F;stroke:#F0047F;stroke-width:3;stroke-miterlimit:10;}
	.st1{fill:#F0047F;}
	.st2{fill:#6B1687;stroke:#6B1687;stroke-miterlimit:10;}
	.st3{fill:#693194;stroke:#F0047F;stroke-width:3;stroke-miterlimit:10;}
</style>
<path class="st0" d="M9.64,64.72c-0.81,1.65-2.9,2.18-4.19,1.43c-1.02-0.58-1.51-1.94-1.01-3.21c7.55-18.65,15.1-37.3,22.66-55.96
	c0.56-1.26,2.02-1.92,3.32-1.6c1.47,0.36,2.41,1.9,1.89,3.38C24.75,27.42,17.2,46.07,9.64,64.72z"/>
<path class="st0" d="M51.93,56.45c-0.99,1.67-1.98,3.34-2.96,5.01c-6.45-15.6-12.91-31.19-19.36-46.79c1.13-1.75,2.27-3.5,3.4-5.25
	C39.31,25.1,45.62,40.78,51.93,56.45z"/>
<path class="st0" d="M54.97,63.59c-0.72,1.55-2.68,2.12-4.02,1.44c-1.11-0.57-1.67-1.93-1.19-3.21c7.55-18.65,15.1-37.3,22.66-55.96
	c0.62-1.5,2.48-2.14,3.87-1.52c1.24,0.55,1.87,1.99,1.34,3.3C70.07,26.29,62.52,44.94,54.97,63.59z"/>
<path class="st1" d="M97.07,53.69c0.92,6.6-3.68,12.36-9.54,12.93c-6.03,0.59-10.95-4.56-12.02-9.27c-1.05-4.63,1.62-8.87,2.27-9.9
	c1-1.59,1.9-2.34,2.56-3.06c6.52-7.08,1.7-23.51,2.65-23.63c0.33-0.04,1.3,1.98,1.72,3.03c0,0.01,0-0.01,0,0
	c0.96,2.37,7.13,14.2,10.15,22.51C95.47,47.98,96.31,50.51,97.07,53.69z"/>
<path class="st2" d="M67.88,10.82"/>
<path class="st3" d="M60.53,62.11"/>
<path class="st0" d="M48.95,59.47"/>
</svg>
